<?xml version="1.0" encoding="UTF-8" standalone="no"?>
<!-- Created with Inkscape (http://www.inkscape.org/) -->

<svg
   xmlns:dc="http://purl.org/dc/elements/1.1/"
   xmlns:cc="http://creativecommons.org/ns#"
   xmlns:rdf="http://www.w3.org/1999/02/22-rdf-syntax-ns#"
   xmlns:svg="http://www.w3.org/2000/svg"
   xmlns="http://www.w3.org/2000/svg"
   xmlns:sodipodi="http://sodipodi.sourceforge.net/DTD/sodipodi-0.dtd"
   xmlns:inkscape="http://www.inkscape.org/namespaces/inkscape"
   width="128"
   height="128"
   viewBox="0 0 33.866666 33.866668"
   version="1.1"
   id="svg8"
   inkscape:version="0.92.2 (5c3e80d, 2017-08-06)"
   sodipodi:docname="moviehelmet.svg">
  <defs
     id="defs2">
    <inkscape:path-effect
       effect="bspline"
       id="path-effect950"
       is_visible="true"
       weight="33.333333"
       steps="2"
       helper_size="0"
       apply_no_weight="true"
       apply_with_weight="true"
       only_selected="false" />
    <inkscape:path-effect
       effect="bspline"
       id="path-effect928"
       is_visible="true"
       weight="33.333333"
       steps="2"
       helper_size="0"
       apply_no_weight="true"
       apply_with_weight="true"
       only_selected="false" />
    <inkscape:path-effect
       effect="bspline"
       id="path-effect928-3"
       is_visible="true"
       weight="33.333333"
       steps="2"
       helper_size="0"
       apply_no_weight="true"
       apply_with_weight="true"
       only_selected="false" />
  </defs>
  <sodipodi:namedview
     id="base"
     pagecolor="#ffffff"
     bordercolor="#666666"
     borderopacity="1.0"
     inkscape:pageopacity="0.0"
     inkscape:pageshadow="2"
     inkscape:zoom="5.6"
     inkscape:cx="17.031119"
     inkscape:cy="58.706474"
     inkscape:document-units="px"
     inkscape:current-layer="layer1"
     showgrid="false"
     units="px"
     showguides="true"
     inkscape:guide-bbox="true"
     inkscape:window-width="1920"
     inkscape:window-height="1017"
     inkscape:window-x="-8"
     inkscape:window-y="-8"
     inkscape:window-maximized="1" />
  <metadata
     id="metadata5">
    <rdf:RDF>
      <cc:Work
         rdf:about="">
        <dc:format>image/svg+xml</dc:format>
        <dc:type
           rdf:resource="http://purl.org/dc/dcmitype/StillImage" />
        <dc:title />
      </cc:Work>
    </rdf:RDF>
  </metadata>
  <g
     inkscape:label="Capa 1"
     inkscape:groupmode="layer"
     id="layer1"
     transform="translate(0,-263.13332)">
    <g
       id="g864">
      <g
         style="fill:none"
         id="g966">
        <g
           style="fill:none"
           transform="translate(0.14174107,-4.9609376)"
           id="g971">
          <path
             inkscape:original-d="m 26.174852,284.10155 c 0.346744,1.73213 0.693221,3.46452 1.039434,5.19717 1.213083,0.53527 2.425612,1.07067 3.638021,1.6064 0.362455,1.1493 0.72472,2.29909 1.086683,3.44903 -0.01548,-0.0475 -0.03123,-0.0947 -0.04725,-0.14174"
             inkscape:path-effect="#path-effect928"
             inkscape:connector-curvature="0"
             id="path926"
             d="m 26.174852,284.10155 c 0.346438,1.73219 0.692916,3.46458 1.472647,4.59867 0.779731,1.13409 1.992259,1.66949 2.779603,2.51189 0.787345,0.84241 1.149609,1.9922 1.322849,2.54342 0.17324,0.55123 0.157504,0.50402 0.141789,0.45688"
             style="fill:none;stroke:#000000;stroke-width:0.19499999;stroke-linecap:butt;stroke-linejoin:miter;stroke-miterlimit:4;stroke-dasharray:none;stroke-opacity:1" />
          <path
             inkscape:original-d="m 26.855025,283.29773 c 0.346744,1.73213 0.693221,3.46452 1.039434,5.19717 1.213083,0.53527 2.425612,1.07067 3.638021,1.6064 0.362455,1.1493 0.72472,2.29909 1.086683,3.44903 -0.01548,-0.0475 -0.03123,-0.0947 -0.04725,-0.14174"
             inkscape:path-effect="#path-effect928-3"
             inkscape:connector-curvature="0"
             id="path926-6"
             d="m 26.855025,283.29773 c 0.346438,1.73219 0.692916,3.46458 1.472647,4.59867 0.779731,1.13409 1.992259,1.66949 2.779603,2.51189 0.787345,0.84241 1.149609,1.9922 1.322849,2.54342 0.17324,0.55123 0.157504,0.50402 0.141789,0.45688"
             style="fill:none;stroke:#000000;stroke-width:0.16500001;stroke-linecap:butt;stroke-linejoin:miter;stroke-miterlimit:4;stroke-dasharray:none;stroke-opacity:1" />
          <path
             inkscape:original-d="m 31.891741,294.21241 c 0.226988,-0.2682 0.453713,-0.53614 0.680172,-0.80382"
             inkscape:path-effect="#path-effect950"
             inkscape:connector-curvature="0"
             id="path948"
             d="m 31.891741,294.21241 c 0.226962,-0.26822 0.453687,-0.53616 0.680172,-0.80382"
             style="fill:none;stroke:#000000;stroke-width:0.16500001;stroke-linecap:butt;stroke-linejoin:miter;stroke-miterlimit:4;stroke-dasharray:none;stroke-opacity:1" />
        </g>
      </g>
      <ellipse
         ry="10.911879"
         rx="10.675643"
         cy="278.19568"
         cx="15.355283"
         id="path819"
         style="opacity:1;fill:#999999;fill-opacity:1;stroke:#000000;stroke-width:0.25299999;stroke-linejoin:round;stroke-miterlimit:4;stroke-dasharray:none;stroke-opacity:1;paint-order:normal" />
      <ellipse
         ry="10.681463"
         rx="9.9255085"
         cy="278.47916"
         cx="15.591517"
         id="path819-5-2"
         style="opacity:1;fill:#1a1a1a;fill-opacity:1;stroke:#000000;stroke-width:0.13546667;stroke-linejoin:round;stroke-miterlimit:4;stroke-dasharray:none;stroke-opacity:1;paint-order:normal" />
      <ellipse
         ry="10.911879"
         rx="10.675642"
         cy="278.99887"
         cx="16.583706"
         id="path819-5"
         style="opacity:1;fill:#b3b3b3;fill-opacity:1;stroke:#000000;stroke-width:0.25299999;stroke-linejoin:round;stroke-miterlimit:4;stroke-dasharray:none;stroke-opacity:1;paint-order:normal" />
      <path
         inkscape:transform-center-y="0.27529987"
         inkscape:transform-center-x="0.13625008"
         d="m 23.481771,283.70269 c -0.204482,0.2995 -5.861398,-4.11577 -6.131612,-3.87392 -0.270214,0.24186 3.493412,6.35172 3.17317,6.52188 -0.320242,0.17016 -3.277314,-6.36826 -3.628972,-6.27968 -0.351659,0.0886 0.141472,7.24763 -0.221166,7.24948 -0.362638,0.002 0.05756,-7.16186 -0.294979,-7.24686 -0.352543,-0.085 -3.242877,6.48321 -3.564835,6.31632 -0.321959,-0.16689 3.379252,-6.31476 3.106589,-6.55385 -0.272663,-0.2391 -5.884322,4.23355 -6.0918432,3.93616 -0.2075216,-0.2974 5.9267962,-4.02103 5.7964772,-4.35945 -0.13032,-0.33842 -7.1777404,1.01405 -7.2232846,0.65428 -0.045544,-0.35978 7.1165826,-0.80613 7.1584606,-1.16635 0.04188,-0.36021 -6.8268239,-2.43776 -6.6999572,-2.77749 0.1268667,-0.33973 6.6760452,2.59345 6.8805272,2.29396 0.204483,-0.2995 -4.911965,-5.33112 -4.641751,-5.57298 0.270214,-0.24185 4.706107,5.39891 5.026349,5.22874 0.320242,-0.17016 -1.871834,-7.00317 -1.520176,-7.09175 0.351659,-0.0886 1.658056,6.96753 2.020694,6.96568 0.362638,-0.002 1.597111,-7.07089 1.949654,-6.9859 0.352542,0.085 -1.769836,6.93998 -1.447878,7.10687 0.321958,0.16689 4.700178,-5.51875 4.972841,-5.27965 0.272663,0.23909 -4.79228,5.32255 -4.584758,5.61995 0.207521,0.2974 6.72649,-2.70233 6.85681,-2.36391 0.13032,0.33842 -6.71687,2.48581 -6.671325,2.84558 0.04554,0.35977 7.211845,0.73317 7.169967,1.09338 -0.04188,0.36022 -7.102706,-0.92041 -7.229573,-0.58068 -0.126866,0.33973 6.045053,4.0007 5.840571,4.30019 z"
         inkscape:randomized="0"
         inkscape:rounded="0.05"
         inkscape:flatsided="false"
         sodipodi:arg2="0.84072157"
         sodipodi:arg1="0.5990606"
         sodipodi:r2="1.0783913"
         sodipodi:r1="8.2953176"
         sodipodi:cy="279.02524"
         sodipodi:cx="16.630953"
         sodipodi:sides="13"
         id="path874"
         style="opacity:1;fill:#ffffff;fill-opacity:1;stroke:#000000;stroke-width:0.25299999;stroke-linejoin:round;stroke-miterlimit:4;stroke-dasharray:none;stroke-opacity:1;paint-order:normal"
         sodipodi:type="star" />
      <ellipse
         ry="1.1251423"
         rx="1.1723895"
         cy="279.04608"
         cx="16.6782"
         id="path876"
         style="opacity:1;fill:#ffffff;fill-opacity:1;stroke:#000000;stroke-width:0.1760783;stroke-linejoin:round;stroke-miterlimit:4;stroke-dasharray:none;stroke-opacity:1;paint-order:normal" />
      <path
         sodipodi:open="true"
         d="m 17.155802,278.02064 a 1.0378575,1.1317734 0 0 1 -0.101878,1.54046 1.0378575,1.1317734 0 0 1 -1.41629,-0.005"
         sodipodi:end="2.3247786"
         sodipodi:start="5.6042522"
         sodipodi:ry="1.1317734"
         sodipodi:rx="1.0378575"
         sodipodi:cy="278.73135"
         sodipodi:cx="16.348097"
         sodipodi:type="arc"
         id="path876-8"
         style="opacity:1;fill:#ffffff;fill-opacity:1;stroke:#000000;stroke-width:0.16615553;stroke-linejoin:round;stroke-miterlimit:4;stroke-dasharray:none;stroke-opacity:1;paint-order:normal" />
    </g>
  </g>
</svg>
